<svg fill="#808080" xmlns="http://www.w3.org/2000/svg" viewBox="0 0 556.87 121.67" ><path d="M155.06 41.39l-16.92 38.89h7.77l3.49-8.9h16.86l3.63 8.9h7.92l-16.76-38.89h-6zm-3.29 24.06l6.1-15.82 5.99 15.82h-12.09zm52.03 5.33l-10.61-29.39h-7.96l15.27 38.89h5.99l15.71-38.89h-7.47L203.8 70.78zm43.14-29.39l-16.92 38.89h7.74l3.52-8.9h16.86l3.63 8.9h7.91l-16.75-38.89h-5.99zm-3.31 24.06l6.1-15.82 5.99 15.82h-12.09zm48.28-24.06h-6.92l-.01 38.89h23.47v-6.26h-16.54V41.39zm45.14 0l-16.92 38.89h7.74l3.52-8.9h16.88l3.62 8.9h7.9l-16.75-38.89h-5.99zm-3.29 24.06l6.1-15.82 5.98 15.82h-12.08zm69.47 4.83h-.11l-18.85-28.89h-9.17v38.89h6.92V50.45h.11l19.23 29.83h8.79V41.39h-6.92v28.89zm49.64 3.63a10.1 10.1 0 0 1-4.54 1.1c-1.89.02-3.76-.35-5.49-1.1a12.93 12.93 0 0 1-4.18-3.03c-1.19-1.33-2.13-2.87-2.74-4.54-.64-1.85-.96-3.8-.94-5.76a15.31 15.31 0 0 1 .94-5.44c.62-1.63 1.55-3.12 2.74-4.4 1.17-1.28 2.59-2.29 4.18-2.97 1.73-.75 3.6-1.12 5.49-1.1 1.37 0 2.73.26 4.01.76 1.61.7 3.03 1.75 4.17 3.07l5.38-3.98a16.67 16.67 0 0 0-6.32-4.73c-2.31-.97-4.8-1.46-7.31-1.43-2.83-.02-5.65.49-8.29 1.51a18.65 18.65 0 0 0-6.48 4.12 18.94 18.94 0 0 0-4.23 6.54c-1.05 2.69-1.57 5.57-1.51 8.46a21.53 21.53 0 0 0 1.51 8.29 19.18 19.18 0 0 0 4.23 6.43 19.87 19.87 0 0 0 6.48 4.12c2.65.98 5.46 1.46 8.29 1.43a19.96 19.96 0 0 0 8.06-1.63c2.59-1.15 4.81-2.98 6.43-5.3l-5.71-4.07c-1.12 1.5-2.54 2.73-4.18 3.63zm50.63-17.03h-18.17V41.39h-6.92v38.89h6.92V63.14h18.17v17.14h6.92V41.39h-6.92v15.49zm33.53 17.14V63.47h17.86v-6.26h-17.86v-9.56h18.83v-6.26h-25.75v38.89h26.76v-6.26h-19.84zM55.79 5.04C24.98 5.04 0 30.02 0 60.83s24.98 55.79 55.79 55.79 55.79-24.98 55.79-55.79h0c0-30.81-24.98-55.79-55.79-55.79zM45.42 76.66c-.48.82-3.64 3.14-4.59 3.14l-18.41-.1c-1.93-.07-3.07-1.76-2.13-3.45l29.65-52.26a2.52 2.52 0 0 1 .93-.96 2.59 2.59 0 0 1 3.55.9l8.94 15.9c.47.81.5 3.97 0 4.78L45.42 76.66zm41.32 2.73c-.68.45-1.85.45-4.12.45H67.1c-2.29 0-3.44 0-4.08-.44a2.77 2.77 0 0 1-1.25-2.17c-.04-.8.53-1.78 1.66-3.74v-.05l7.74-13.29c1.14-1.96 1.72-2.93 2.43-3.3.78-.4 1.7-.4 2.48 0 .71.36 1.26 1.29 2.36 3.14l.08.15 7.78 13.3.11.19c1.08 1.86 1.59 2.83 1.59 3.59-.04.88-.51 1.69-1.25 2.17z"/></svg>
