<svg fill="#808080" xmlns="http://www.w3.org/2000/svg" viewBox="0 0 478.42 121.67" ><path d="M74.69 61.97L37.34 0 0 61.97l37.34 22.08 37.35-22.08zM0 69.04l37.34 52.63L74.7 69.04 37.34 91.11 0 69.04zm169.85-15.58h-7.91V42.03c0-.92-.78-1.6-1.77-1.45-.7.12-1.19.78-1.19 1.49v11.39h-7.61c-.84 0-1.47.74-1.47 1.47 0 .84.62 1.47 1.47 1.47h7.61v31.08c0 .74.62 1.47 1.47 1.47s1.47-.74 1.47-1.47V56.4h7.92c.84 0 1.47-.62 1.47-1.47 0-.74-.62-1.47-1.47-1.47zm-53.01-.74c-9.94 0-17.02 8.89-17.02 18.41s7.09 18.41 17.02 18.41c5.8 0 11.73-2.54 14.69-7.73.14-.27.27-.55.2-1.03a1.43 1.43 0 0 0-.84-1.07c-.81-.35-1.45.02-1.88.6-2.96 4.21-6.88 6.23-12.16 6.23-7.73 0-13.22-6.66-13.96-13.96h29.54c.84 0 1.54-.68 1.54-1.52-.02-9.48-7.2-18.37-17.15-18.35zM102.9 69.65c.74-7.3 6.23-13.96 13.96-13.96s13.32 6.66 13.96 13.96H102.9zM402.6 53.7c-1.04-.31-1.9.56-1.9 1.42v12.05c0 10.28-2.33 19.57-12.27 19.57-7.09 0-10.68-6.34-10.68-12.69V55.12c0-.74-.62-1.47-1.47-1.47s-1.47.74-1.47 1.47v18.94c0 8.05 4.88 15.65 13.65 15.65 5.48 0 9.84-3.48 12.27-8.35v6.13c0 .84.62 1.47 1.47 1.47.74 0 1.47-.62 1.47-1.47V55.2a1.59 1.59 0 0 0-1.07-1.49zm-96.77-.23c-5.07 0-9.94 3.92-12.36 8.03v-6.56c0-.92-.78-1.6-1.77-1.45-.7.12-1.19.78-1.19 1.49v32.21c0 .92.78 1.6 1.77 1.45.7-.12 1.19-.78 1.19-1.49V73.02c0-8.24 3.9-15.33 12.58-16.6.85-.12 1.37-.64 1.37-1.59 0-.84-.85-1.37-1.59-1.36zm-101.31-.64c-5.28 0-9.83 3.07-12.36 7.61V25.43c0-.74-.62-1.47-1.47-1.47s-1.47.74-1.47 1.47v61.88c0 .92.78 1.6 1.77 1.45.7-.12 1.19-.78 1.19-1.49V73.14c0-.1-.1-1.06-.1-1.26-.53-8.13 3.4-16.08 12.49-16.08 7.09 0 10.68 6.34 10.68 12.69v18.84c0 .84.62 1.47 1.47 1.47.74 0 1.47-.62 1.47-1.47V68.49c0-8.05-4.97-15.65-13.66-15.65zm134.3-.11c-9.94 0-17.02 8.89-17.02 18.41s7.09 18.41 17.02 18.41c5.8 0 11.73-2.54 14.69-7.73.14-.27.27-.55.2-1.03a1.43 1.43 0 0 0-.84-1.07c-.81-.35-1.45.02-1.88.6-2.96 4.21-6.88 6.23-12.16 6.23-7.73 0-13.22-6.66-13.96-13.96h29.54c.84 0 1.54-.68 1.54-1.52-.02-9.48-7.21-18.37-17.15-18.35zm-13.94 16.93c.74-7.3 6.23-13.96 13.96-13.96s13.32 6.66 13.96 13.96h-27.92zM254 52.72c-9.94 0-17.02 8.89-17.02 18.41s7.09 18.41 17.02 18.41c5.8 0 11.73-2.54 14.69-7.73.14-.27.27-.55.2-1.03a1.43 1.43 0 0 0-.84-1.07c-.81-.35-1.45.02-1.88.6-2.96 4.21-6.88 6.23-12.16 6.23-7.73 0-13.22-6.66-13.96-13.96h29.57c.84 0 1.54-.68 1.54-1.52-.02-9.48-7.21-18.37-17.17-18.35zm-13.94 16.93c.74-7.3 6.23-13.96 13.96-13.96s13.32 6.66 13.96 13.96h-27.92zm224.72-16.83c-6.13 0-10.89 3.92-13.32 9.42-1.9-5.62-6.56-9.42-12.58-9.42-5.28 0-9.83 2.98-12.36 7.52v-5.4c0-.92-.78-1.6-1.77-1.45-.7.12-1.19.78-1.19 1.49v32.31c0 .92.78 1.6 1.77 1.45.73-.12 1.21-.78 1.21-1.49V73.02c.1-.1 0-.53 0-.74-.33-9.42 3.37-16.51 12.36-16.51 7.09 0 10.68 6.23 10.68 12.58v18.93c0 .84.62 1.47 1.47 1.47.74 0 1.47-.62 1.47-1.47v-14.6c0-7.4 3.37-16.91 12.27-16.91 7.09 0 10.68 6.23 10.68 12.58v18.93c0 .84.62 1.47 1.47 1.47.74 0 1.47-.62 1.47-1.47V68.35c0-8.03-4.97-15.53-13.64-15.54z"/></svg>
