<svg fill="#808080" xmlns="http://www.w3.org/2000/svg" viewBox="0 0 600 121.67"><path d="M59.8 75.88l-13.1 7.5v8.9l20.7-11.9v-23.9l-7.6 4.4v15zm-5.4-3.1v-8.8l-7.6 4.4v8.8l7.6-4.4zm-28.3-31.4l7.6 4.4 7.6-4.4-7.6-4.4-7.6 4.4zm26.1 0l7.6 4.4v8.8l7.6-4.4v-8.8l-7.6-4.4-7.6 4.4zm-31.6 27l-7.6-4.4v8.8l7.6 4.4v-8.8zm-13-22.6l7.6-4.4-7.6-4.4-7.6 4.4v8.8l7.6 4.4v-8.8zm46.8 3.1l-7.6-4.4-13.1 7.5-13.1-7.5-7.6 4.4v8.8l13.1 7.5v15l7.6 4.4 7.6-4.4v-15l13.1-7.5v-8.8zM7.6 60.78L0 56.38v23.8l20.7 11.9v-8.8l-13.1-7.5v-15zm18.5 25.8v8.8l7.6 4.4 7.6-4.4v-8.8l-7.6 4.4-7.6-4.4zm7.6-55.9l13.1 7.5 7.6-4.4-20.7-11.9L13 33.78l7.6 4.4 13.1-7.5zm479.2 8.9l-18.8 43h7.7l4.4-10.3h20.2l4.4 10.3h7.9l-18.9-43h-6.9zm-3.9 26l7.3-17.1 7.4 17.1H509zm-149.6-.6h20.2v-8.4h-20.2v-8.7h22.9v-8.4h-32.2v42.6h32.5v-8.3l-23.2.2v-9zm-240.3-5.2c3-1.7 5.6-4.4 5.6-9.2v-.1c0-6.7-5.4-11-14.1-11H90.8v42.6h20.3c9.6.1 16-3.8 16-11.6v-.2c0-5.7-3.1-8.5-8-10.5zm-19.2-12.2h9.3c4 0 6.2 1.6 6.2 4.4v.2c0 3.2-2.6 4.5-6.8 4.5v-.1h-8.7v-9zm17.8 21.8c0 3.2-2.5 4.6-6.6 4.6H99.9v-9.4h10.9c4.8 0 6.9 1.7 6.9 4.6v.2zm363-11.7h-20.4v-17.8h-7.5v42.7h7.5v-18h20.4v18h7.5v-42.7h-7.5v17.8zm111.8-17.8v29.5l-22.9-29.5h-6.9v42.7h7.4v-30.4l23.6 30.4h6.3v-42.7h-7.5zm-47.7 0h7.5v42.7h-7.5zm-115.6 36.4c-8.1 0-14.1-6.8-14.1-15.3s5.9-15.1 14.1-15.1c4.9 0 8.5 2.1 11.9 5.3l4.8-5.5c-4.1-3.9-8.8-6.6-16.7-6.6-12.9.1-22 10-22 22.2s9.3 22 21.7 22c8.1 0 12.9-3 17.3-7.6l-4.8-4.9c-3.7 3.4-7 5.5-12.2 5.5zM188 65.88l-20-26.3h-8.7v42.6h9.3v-27.1l20.7 27.1h8v-42.6H188v26.3zm-50.6-26.3h9.4v42.6h-9.4zm84.9-.3L204 82.18h9.4l3.9-9.6h18l3.9 9.6h10l-18.3-42.9h-8.6zm-1.5 25l5.7-13.8 5.6 13.8h-11.3zm104.5 10c-7.3 0-12.4-6.1-12.4-13.4v-.2c0-7.3 5.2-13.3 12.4-13.3 4.2 0 7.6 1.8 10.9 4.8l6-6.9c-3.9-3.9-8.7-6.6-16.8-6.6-13.1 0-22.3 9.9-22.3 22v.2c0 12.3 9.4 22 21.9 22 8.2 0 13.1-2.9 17.5-7.6l-6-6c-3.3 3-6.3 5-11.2 5zm-40.6-8.4l-20-26.3H256v42.6h9.3v-27.1l20.7 27.1h8v-42.6h-9.3v26.3z"/></svg>
