<svg fill="#808080" xmlns="http://www.w3.org/2000/svg" xmlns:xlink="http://www.w3.org/1999/xlink" viewBox="0 0 531.75 121.67" ><path d="M292.24 50.02h10.37v32.51h-10.37zm-16.77 11.97c-3.26-1.13-4.46-1.86-4.46-2.86 0-1.26 1.4-1.79 2.59-1.79 2.19 0 4.98 1.13 7.24 3.39l4.92-7.25c-3.79-2.79-7.38-4.05-12.3-4.05-6.78 0-12.17 3.79-12.17 10.37s4.79 8.91 10.24 10.57c4.05 1.26 5.05 1.93 5.05 2.99 0 1.2-1.06 1.93-3.12 1.93-2.99 0-5.78-1.2-8.51-3.66l-4.85 6.71c3.59 3.19 8.11 4.79 13.23 4.79 8.91 0 13.23-4.39 13.23-10.44 0-6.38-3.92-8.24-11.1-10.7zm-70.4-12.56c-3.79 0-7.25 1.46-9.77 4.39h-.13v-3.79H184.8v32.51h10.37V66.19c0-5.05 2.39-7.51 5.98-7.51 3.39 0 5.19 1.53 5.19 6.91v16.95h10.37V63.06c0-10.3-4.92-13.63-11.63-13.63z"/><use xlink:href="#B"/><path d="M239.51 49.43c-10.5 0-17.62 6.98-17.62 16.88s7.11 16.82 17.62 16.82 17.55-6.85 17.55-16.82-7.31-16.88-17.55-16.88zm0 24.53c-4.12 0-7.11-3.32-7.11-7.64s2.93-7.64 7.11-7.64 7.05 3.12 7.05 7.64-3.13 7.64-7.05 7.64zm-81.39-8.71h9.17v5.58a16.36 16.36 0 0 1-8.18 2.06c-8.04 0-12.76-6.25-12.76-13.89 0-8.77 5.58-13.89 12.3-13.89 5.05 0 8.77 2.19 11.3 4.65l7.84-6.65c-4.85-5.58-12.3-8.44-19.15-8.44-15.09 0-23.93 10.64-23.93 24.33 0 15.36 10.77 24.06 24.4 24.06 7.31 0 14.49-2.46 18.81-5.78V56.07h-19.81v9.17z"/><use xlink:href="#B" x="189.69"/><path d="M322.98 61.99c-3.26-1.13-4.45-1.86-4.45-2.86 0-1.26 1.39-1.79 2.59-1.79 2.19 0 4.99 1.13 7.25 3.39l4.92-7.25c-3.79-2.79-7.38-4.05-12.3-4.05-6.78 0-12.16 3.79-12.16 10.37s4.79 8.91 10.24 10.57c4.06 1.26 5.05 1.93 5.05 2.99 0 1.2-1.06 1.93-3.13 1.93-2.99 0-5.78-1.2-8.51-3.66l-4.85 6.71c3.59 3.19 8.11 4.79 13.23 4.79 8.91 0 13.23-4.39 13.23-10.44 0-6.38-3.92-8.24-11.1-10.7zm197.14-12.56c-3.79 0-7.24 1.46-9.77 4.39h-.13v-3.79h-10.37v32.51h10.37V66.19c0-5.05 2.39-7.51 5.98-7.51 3.39 0 5.19 1.53 5.19 6.91v16.95h10.37V63.06c0-10.3-4.92-13.63-11.63-13.63zm-38.18.59h10.37v32.51h-10.37zM378.87 72.49c-7.71 0-12.7-5.92-12.7-13.49 0-8.64 5.78-13.69 12.63-13.69 4.59 0 8.38 2.46 10.9 5.45l8.11-6.98c-4.64-5.74-11.63-9.09-19.01-9.11-15.56 0-24.33 10.84-24.33 24.33 0 15.69 10.84 24.13 24.4 24.13 7.37.05 14.36-3.25 19.01-8.97l-8.11-6.98c-2.73 3.26-6.51 5.32-10.9 5.32zm85.34-19.08l-.13.07c-2.24-2.61-5.53-4.1-8.98-4.05-8.38 0-14.82 6.91-14.82 16.88s6.45 16.82 15.36 16.82c3.92 0 6.85-1.33 8.97-4.06l.13.07v3.39h9.91V50.02h-10.44v3.39zm-6.38 20.54c-4.12 0-6.98-3.06-6.98-7.64s2.99-7.71 6.98-7.71 6.85 3.26 6.85 7.71-3.13 7.64-6.85 7.64zm-34.3-24.52c-3.99 0-7.51 1.46-10.04 4.32l-.13-.07V33.6h-10.37v48.93h10.37V66.11c0-5.05 2.39-7.45 6.05-7.45s5.45 1.6 5.45 6.85v17.02h10.37V62.92c0-10.24-4.99-13.49-11.7-13.49zM33.25 68.65h.09c3.26 0 6.44-1.07 9.02-3.08L21.73 44.95c-2.02 2.57-3.1 5.75-3.08 9.01-.02 8.09 6.52 14.67 14.61 14.69zm46.76-.04a14.64 14.64 0 0 0 14.69-14.6v-.09c0-3.26-1.07-6.44-3.08-9.01L70.99 65.53c2.57 2.02 5.75 3.1 9.02 3.08zm15.95-27.95c7.37 8.81 6.21 21.92-2.6 29.29-7.73 6.47-18.98 6.46-26.7 0L56.65 79.96 46.64 69.95c-8.8 7.38-21.92 6.23-29.3-2.58-6.48-7.73-6.48-18.99 0-26.71l-4.68-4.68-4.46-4.46C2.82 40.36-.01 50.51 0 60.86c0 31.28 25.36 56.58 56.61 56.58s56.61-25.35 56.61-56.59c.1-10.34-2.71-20.51-8.11-29.33l-9.15 9.14zm5.55-14.29c-1.18-1.63-2.48-3.17-3.9-4.59C76.06-.85 40.24-1.71 17.62 19.84a58.54 58.54 0 0 0-1.93 1.93 65.79 65.79 0 0 0-3.99 4.64L56.6 71.3l44.91-44.93zM56.65 11.59c13.26 0 25.57 5.11 34.81 14.43L56.65 60.81l-34.8-34.79c9.28-9.32 21.54-14.43 34.81-14.43z"/><defs ><path id="B" d="M297.43,34.14c-3.59,0-6.18,2.66-6.18,5.85,0,3.39,2.59,5.98,6.18,5.98s6.25-2.59,6.25-5.98-2.66-5.85-6.25-5.85Z"/></defs></svg>
