<svg fill="#808080" xmlns="http://www.w3.org/2000/svg" viewBox="0 0 407.96 121.67" ><path d="M159.6 44.55c-2.5-1.7-5.58-2.46-8.86-2.46-4.81 0-9.43 1.7-13.67 5.11l-.96-4.17h-9.63v51.88h11.17V75.22c1.35 1.33 3.08 2.46 5.01 3.03 1.93.76 3.85 1.14 5.97 1.14 3.66 0 7.12-.76 10.01-2.27 2.89-1.33 5.2-3.41 6.74-6.25 1.73-2.84 2.5-6.06 2.5-9.85s-.77-7.2-2.31-10.04c-1.35-2.84-3.47-4.92-5.97-6.44zm-6.16 23.48c-1.93 1.7-4.24 2.65-7.12 2.65a10.02 10.02 0 0 1-5.39-1.51c-1.35-.95-2.5-2.27-3.08-3.98v-8.52c.96-1.7 2.12-3.03 3.66-3.79 1.54-.95 3.47-1.33 5.58-1.33 2.5 0 4.81.76 6.55 2.65 1.73 1.89 2.7 4.17 2.7 7.01s-.96 5.11-2.89 6.82zm48.9-23.29c-3.08-1.7-6.55-2.46-10.4-2.46s-7.32.95-10.4 2.46-5.39 3.79-7.12 6.44c-1.54 2.84-2.5 6.06-2.5 9.66a20.23 20.23 0 0 0 2.5 9.85c1.73 2.84 4.04 4.92 7.12 6.44s6.55 2.27 10.4 2.27 7.51-.95 10.4-2.46c3.08-1.51 5.2-3.79 6.93-6.63s2.5-5.87 2.5-9.47-.77-6.63-2.5-9.47-4.04-5.11-6.93-6.63zm-4.24 22.91c-1.54 1.7-3.66 2.65-6.16 2.65s-4.62-.76-6.16-2.65c-1.73-1.89-2.5-4.17-2.5-6.82 0-2.84.77-5.11 2.31-7.01 1.73-1.7 3.66-2.65 6.16-2.65 2.7 0 4.62.95 6.35 2.84 1.54 1.7 2.31 3.98 2.31 6.82 0 2.65-.77 5.11-2.31 6.82zm20.61-51.5h11.17v62.3h-11.17zm37.73 48.28l-9.24-20.45h-12.71l16.18 32.76-8.47 18.37h10.78l22.71-51.13h-10.01l-9.24 20.45zm50.44-17.8c-1.16-1.33-2.89-2.46-5.2-3.22s-4.81-1.14-7.7-1.14c-3.08 0-5.97.76-8.66 2.46-2.89 1.7-5.01 3.98-6.74 6.82s-2.5 6.06-2.5 9.47.96 6.44 2.5 9.28c1.73 2.84 3.85 5.11 6.55 6.63 2.7 1.7 5.78 2.46 8.86 2.46s5.78-.57 8.09-1.7a12.65 12.65 0 0 0 5.01-4.35v4.92c0 2.46-.96 4.54-2.89 5.87s-4.24 2.08-7.12 2.08c-2.31 0-4.43-.57-5.97-1.33a18.75 18.75 0 0 1-4.81-3.41l-6.55 7.57c1.73 1.51 3.27 2.65 4.81 3.6 1.35.76 3.08 1.51 5.2 2.27 2.12.57 4.62.95 7.51.95 3.85 0 7.32-.76 10.59-2.27s5.78-3.6 7.7-6.25c1.93-2.65 2.89-5.68 2.89-8.9V43.98h-10.4l-1.16 2.65zm.19 18.56c-1.93 3.41-5.2 5.11-9.63 5.3-2.7 0-5.01-.95-6.93-2.84-1.93-1.89-2.89-4.35-2.89-7.01 0-2.84.96-5.11 2.89-6.82 1.93-1.7 4.24-2.65 6.93-2.65 2.31 0 4.24.57 5.97 1.51 1.73.95 2.89 2.27 3.66 3.98v8.52zm48.52-20.64c-3.08-1.7-6.55-2.46-10.4-2.46s-7.32.95-10.4 2.46c-3.08 1.7-5.39 3.79-7.12 6.63s-2.5 6.06-2.5 9.28c0 3.98.77 7.2 2.5 10.04s4.04 4.92 7.12 6.44c3.08 1.51 6.55 2.27 10.4 2.27s7.51-.95 10.4-2.46a15.51 15.51 0 0 0 6.93-6.63c1.73-2.84 2.5-5.87 2.5-9.47s-.96-6.63-2.5-9.47c-1.73-2.84-4.04-5.11-6.93-6.63zm-4.43 23.1c-1.54 1.7-3.66 2.65-6.16 2.65s-4.62-.76-6.16-2.65-2.31-4.17-2.5-6.82c0-2.65.77-5.11 2.5-6.82 1.73-1.7 3.66-2.65 6.16-2.65s4.62.95 6.16 2.65 2.31 3.98 2.31 6.82c0 2.65-.77 5.11-2.31 6.82zm53.33-22.53c-2.12-1.89-5.01-2.84-8.28-2.84-3.08 0-5.78.57-8.09 1.89-2.31 1.33-4.04 3.03-5.39 5.3l-.77-5.49h-10.2v34.46h11.17v-14.2c0-3.6.77-6.63 2.31-9.09s3.66-3.6 6.16-3.6c3.27 0 5.01 1.7 5.2 5.11v21.78h11.36V52.5c-.19-3.03-1.16-5.49-3.47-7.38zM101.08 56.1L78.75 43.41c-1.93-1.14-4.43-1.14-6.55 0l-15.02 8.71-10.2 5.68-15.02 8.71c-1.93 1.14-4.43 1.14-6.55 0l-11.94-6.82c-1.93-1.14-3.27-3.22-3.27-5.49V40.76c0-2.27 1.16-4.36 3.27-5.49l11.74-6.63c1.93-1.14 4.43-1.14 6.55 0l11.74 6.63c1.93 1.14 3.27 3.22 3.27 5.49v8.71l10.2-5.87v-8.71c0-2.27-1.16-4.35-3.27-5.49L31.94 16.9c-1.93-1.14-4.43-1.14-6.55 0L3.27 29.4C1.15 30.54 0 32.62 0 34.89v25.18c0 2.27 1.16 4.36 3.27 5.49l22.14 12.5c1.93 1.14 4.43 1.14 6.55 0l15.02-8.52 10.2-5.87 15.02-8.52c1.93-1.14 4.43-1.14 6.55 0l11.74 6.63c1.93 1.14 3.27 3.22 3.27 5.49v13.44c0 2.27-1.16 4.35-3.27 5.49l-11.74 6.82c-1.93 1.14-4.43 1.14-6.55 0l-11.74-6.63c-1.93-1.14-3.27-3.22-3.27-5.49v-8.71l-10.2 5.87v8.71c0 2.27 1.16 4.35 3.27 5.49l22.14 12.5c1.93 1.14 4.43 1.14 6.55 0l22.14-12.5c1.93-1.14 3.27-3.22 3.27-5.49V61.59c0-2.27-1.16-4.36-3.27-5.49z"/></svg>
